<?xml version="1.0" encoding="UTF-8"?>
<svg version="1.1" viewBox="0 0 2048 1638" width="600" height="480" xmlns="http://www.w3.org/2000/svg">
<path transform="translate(0)" d="m0 0h2048v1638h-2048z" fill="#062944"/>
<path transform="translate(865,376)" d="m0 0h432l11 1 8 7 2 5 1 18v327l-1 17-4 6-4 2-21 1h-521l-38-1-5-4-1-2-1-18v-345l1-7 7-6z" fill="#062944"/>
<path transform="translate(865,376)" d="m0 0h432l11 1 8 7 2 5 1 18v327l-1 17-4 6-4 2-21 1h-521l-38-1-5-4-1-2-1-18v-345l1-7 7-6zm42 29-161 1v344h549v-344l-150-1z" fill="#A3D2F7"/>
<path transform="translate(640,871)" d="m0 0 3 3 5 8 4 2h735l10-4 8-6h3l1 9-1 7-8 5-28 12-17 6-293 1h-363l-13-4-31-15-14-7-2-3v-12z" fill="#A3D2F7"/>
<path transform="translate(1312,774)" d="m0 0h10l8 5 18 18 7 8 14 14 7 8 10 10 7 8 7 7 6 8-1 5-18 11-5 1h-287l-2-5-2-7h-131l-3 12-44 1h-258l-7-3-3-7v-7l4-6 11-12 15-16 7-8 14-15 11-12 9-10 8-7h12l-1 4-11 13-12 13-9 10-3 4h-2l-2 4-8 8-7 8-9 10-4 5h267l7-2 10-6 4-1h146l7 3 8 5 264 1-6-8-7-7-7-8-9-9-7-8-8-8-7-8-14-15-5-6z" fill="#A3D2F7"/>
<path transform="translate(1218,959)" d="m0 0h30l13 4 11 7 6 8 5 11 2 16v13l-2 15-5 12-9 10-12 6-12 3h-25l-13-3-11-6-7-7-5-8-4-14-1-9v-11l2-14 4-12 7-9 8-6 9-4z" fill="#A3D2F7"/>
<path transform="translate(736,960)" d="m0 0h58l16 4 8 5 8 9 4 10 2 10v27l-3 13-5 10-9 8-9 4-7 2-9 1-36 1h-16l-3-2v-100z" fill="#A3D2F7"/>
<path transform="translate(1317,960)" d="m0 0h59l13 3 9 5 5 4 6 10 3 8 2 21-1 14-4 16-5 8-8 7-11 5-9 2-35 1-24-1-1-1v-37z" fill="#A3D2F7"/>
<path transform="translate(609,959)" d="m0 0 69 1 10 4 6 7 3 10v9l-4 12 5 5 4 8 2 8v16l-4 11-7 8-6 3-9 2-22 1h-47l-1-1v-103z" fill="#A3D2F7"/>
<path transform="translate(827,783)" d="m0 0h358l5 5 9 12v4h-389l2-5 8-9 5-6z" fill="#A3D2F7"/>
<path transform="translate(1562,960)" d="m0 0h62l10 3 8 6 5 8 3 10v16l-3 10-6 10-6 4 1 5 13 22 4 7v2l-12 1h-15l-5-3-10-18-6-11v-2h-15v33l-4 1-24-1-1-1v-101z" fill="#A3D2F7"/>
<path transform="translate(1026,516)" d="m0 0h42l19 2 10 4 9 8 5 10 3 14v18l-3 16-6 10-8 7-11 4-9 2h-51l-1-5v-89z" fill="#A3D2F7"/>
<path transform="translate(912,516)" d="m0 0h53l13 1 8 5 4 5 2 5v14l-3 6v4l5 5 3 6 2 7v16l-3 9-5 6-12 5-6 1-35 1h-26l-1-1v-93z" fill="#A3D2F7"/>
<path transform="translate(1445,960)" d="m0 0h85v23l-2 1h-55l1 15h38l3 2v22l-3 1h-36l-3-1 1 4v11h54l2 2v21l-2 2-41 1h-34l-7-2-1-22z" fill="#A3D2F7"/>
<path transform="translate(866,959)" d="m0 0 26 1 1 64 3 9 5 4 5 2h16l6-3 4-5 2-8 1-63h28v63l-3 15-5 10-8 8-9 5-12 3h-25l-11-3-10-5-8-8-5-10-3-14v-64z" fill="#A3D2F7"/>
<path transform="translate(1082,959)" d="m0 0h30l14 4 11 7 7 10 4 12v5l-1 1h-26l-5-10-5-3-8-2h-12l-8 3-5 4-4 9-1 5v15l3 11 5 5 8 4h17l9-4 3-4 2-6h27l1 1-1 11-4 10-7 8-12 6-12 3h-27l-16-4-10-6-7-8-4-8-3-10-1-7v-19l3-15 6-12 7-7 10-6z" fill="#A3D2F7"/>
<path transform="translate(510,960)" d="m0 0h29l17 44 5 14 5 12 7 20 4 9v4h-24l-4-2-7-15-3-1h-27l-5 1-7 17h-29l2-6 13-36 8-20 14-37z" fill="#A3D2F7"/>
<path transform="translate(1445,958)" d="m0 0h85l2 3v22l-3 3h-54v11l6-1h30l6 3 1 2v21l-2 3h-3v8l-1 4h8l1-12 6-11 6-7 9-5 4-1h14l-1-29 1-13 1-1h60l12 3 9 6 4 5 5 12 1 7v8l-3 13-3 6 2 4 4 5 3 6 1 8v10l-2 4-1 3 1 6-17 2h-9l-6-2-6-8-8-16-4-6v-2l-12 1-1 32-7 1h-39l-14-4v2l-3 1-20 1h-58l-5-2-1-1-1-18v-18l-6 2h-5l-1 22v13l-1 2-8 1-2-4-1-37 2-4 10-3 11-1 1-1v-57zm0 2v80l1 22 7 2h36l39-1 2-2v-21l-2-2h-54v-11l-1-4 3 1h36l3-1v-22l-3-2h-38l-1-15h55l2-1v-23zm117 0-1 3v99l1 1 27 1 1-1v-33h15l2 5 11 21 5 7 3 1h15l12-1-2-6-15-25-1-5 7-5 7-14 1-5v-16l-3-10-5-8-8-6-10-3z" fill="#1C4059"/>
<path transform="translate(1219,783)" d="m0 0h57l7 2 7 8 10 13 9 11 14 18 1 5h-92l-7-11-15-26-10-17v-2z" fill="#A3D2F7"/>
<path transform="translate(826,516)" d="m0 0h23l3 5 22 58 7 18 4 10v4h-19l-4-2-6-15-37-1-3 10-5 8h-22l10-27 13-34 12-31z" fill="#A3D2F7"/>
<path transform="translate(1140,516)" d="m0 0h22l1 1 1 60 2 7 4 5 11 4h10l7-3 6-5 2-5 1-9 1-54 1-1h20l2 1v50l-1 13-3 10-4 8-7 7-11 5-7 2-9 1h-9l-15-3-10-5-7-7-6-12-2-11z" fill="#A3D2F7"/>
<path transform="translate(960,864)" d="m0 0h131l2 3 2 9h287l9-3 12-8h2l-1 5-5 2-2 1 2 1-4 3h-6l-1 1h-294v3l26 1h273l-2 2-4 1h-735l-6-4 1-2 2 2 12 1h162l133-1 2-2-45-1v-1h44l2-12z" fill="#072A45"/>
<path transform="translate(1225,956)" d="m0 0h13l17 3 10 4 8 6 6 7 5 12 2 7v6l23-1h5v-40l2-2h58l12 2 14 7 7 7 4 7 4 15 1 7v16l-4 18-3 8v15l-3 5-10 2-12 1-6-1v-2l-38 1h-24l-6 2-22-1-1-1-1-7-1-28-5 13-4 6-5 5-9 6-11 4-5 1h-27l-16-5-9-6-5-5-6-8-4-11-2-11v-16l3-14 3-9 6-9 9-8 12-5zm-7 3-12 3-9 5-8 7-5 8-4 14-1 10v11l2 14 5 13 10 11 11 6 13 3h25l15-4 10-6 8-9 5-12 2-15v-13l-2-16-7-14-4-5-11-7-13-4zm99 1-1 78v24l1 1 32 1 27-1 12-3 11-6 7-7 5-12 3-19-1-20-3-12-5-9-4-5-10-6-9-3-6-1z" fill="#1D415A"/>
<path transform="translate(809,811)" d="m0 0h391l5 3 3 5-2 1h-406l-1-2 5-5z" fill="#A3D2F7"/>
<path transform="translate(746,752)" d="m0 0h544v3l-4 2-67 1h-419l-44-1-7-1-2 1z" fill="#ABE5FD"/>
<path transform="translate(765,783)" d="m0 0h43l-2 4-8 12-10 13-14 19-8 10-4 2h-45l-1-2 10-13 13-16 11-14 9-11z" fill="#A3D2F7"/>
<path transform="translate(822,828)" d="m0 0h374l19 1 2 2v3l-213 1h-59l-156-1 2-4 1-1z" fill="#A3D2F7"/>
<path transform="translate(1227,982)" d="m0 0h10l9 3 7 6 3 6 1 5v18l-3 10-6 7-7 3h-16l-9-4-5-6-3-7-1-13 2-13 6-10 8-4z" fill="#062944"/>
<path transform="translate(1207,816)" d="m0 0 2 1v3l-5 2 15 8v5l-41 1-121 1-268-1-1-5 5-4h3v-2l8-1 1 2h380v-2h-7l-1-3-4 3h-2l-2-2-8 2-4-1-3 1-3-2-4 1h-7l-3 1-4-1-6 1-4-1-3 1-7-1h-205l-4 1v-2l-9 2-14-1-4 1v-2l-7 1h-10l-2-1-36-1-19-1v-1h403zm-385 12-30 1-3 3v2l183 1h38l207-1-1-4-1-1-25-1z" fill="#1D415A"/>
<path transform="translate(1289,184)" d="m0 0h24l7 3 4 5 1 5-1 11-3 4 1 5 4 3 1 3v14l-3 5-8 4-5 1h-19l-3-2-1-22v-37z" fill="#1D415A"/>
<path transform="translate(1048,535)" d="m0 0h18l12 2 6 4 4 5 3 12v12l-2 9-4 6-6 5-7 2-11 1h-12l-1-2z" fill="#072A45"/>
<path transform="translate(266 1e3)" d="m0 0h22l7 2 5 6 1 10-2 7-2 3 1 5 5 5v15l-5 6-7 3-6 1h-15l-5-2-1-28v-31z" fill="#1D415A"/>
<path transform="translate(781,1412)" d="m0 0h15l10 2 6 6v16l-3 4 1 5 4 3 1 3v15l-4 5-6 3-5 1h-21l-2-2-1-28v-30l1-2z" fill="#1D415A"/>
<path transform="translate(907,405)" d="m0 0h261l126 1v9l-7-4h-40l-19-1h-19l-32-1h-358l-35 1h-25l-6 4-4 9h-1l-1 326h199v1h-200v-344z" fill="#13324C"/>
<path transform="translate(1806,579)" d="m0 0 19 1 7 3 4 5v16l-4 5 2 4 5 5v15l-5 6-8 3-9 1h-10l-5-2-1-1-1-29v-28l1-3z" fill="#1D415A"/>
<path transform="translate(266,184)" d="m0 0h22l8 3 4 5v16l-4 5 2 4 5 5v15l-5 6-7 3-7 1h-14l-5-2-1-29v-29z" fill="#1D415A"/>
<path transform="translate(766,983)" d="m0 0h11l14 2 7 4 4 5 2 8v18l-3 10-5 5-7 3-9 1h-16l-1-15v-31l1-9z" fill="#062944"/>
<path transform="translate(1349,983)" d="m0 0h9l14 2 6 3 5 6 2 6 1 17-4 13-4 5-7 3-9 1h-16l-1-1-1-22 1-32z" fill="#062944"/>
<path transform="translate(1263,574)" d="m0 0h8l1 1v63l-3 5-4 1h-17l-8-4-7-8-3-9v-10l5-10 7-6 6-2 14 1v-21z" fill="#1D415A"/>
<path transform="translate(1501,178)" d="m0 0h10l1 61-3 5-6 4h-15l-10-5-6-7-3-10 1-10 4-8 7-6 4-2h11l5 1z" fill="#1D415A"/>
<path transform="translate(477,178)" d="m0 0h10l1 61-3 5-6 4h-15l-10-5-6-7-3-10 1-10 4-8 7-6 4-2h11l5 1z" fill="#1D415A"/>
<path transform="translate(989,1407)" d="m0 0h10l1 61-3 5-5 3-4 1h-9l-11-4-7-7-3-7-1-11 4-10 7-7 7-3 13 1z" fill="#1D415A"/>
<path transform="translate(2013,575)" d="m0 0h10l1 57-2 8-8 4h-12l-8-3-6-4-5-8-1-2v-15l4-8 7-6 4-2h14l2 1z" fill="#1D415A"/>
<path transform="translate(776,578)" d="m0 0h24l1 3-9 25-2 4h21l2-1 1 5 3 7v9l-4 8-6 4-11 2h-18l-2-1-1-28v-36z" fill="#1C4059"/>
<path transform="translate(1776,998)" d="m0 0h7l1 4v39l-1 20-4 5-3 1h-15l-10-5-6-7-3-9v-8l3-9 6-7 8-3h13l2 1v-20z" fill="#1D415A"/>
<path transform="translate(1776,179)" d="m0 0h6l1 1v62l-3 4-6 2h-12l-8-3-6-5-5-9-1-12 4-10 7-7 6-2h8l8 2v-22z" fill="#1D415A"/>
<path transform="translate(752,179)" d="m0 0h6l1 1v62l-5 5-3 1h-12l-8-3-6-4-5-8-2-8 1-10 5-8 5-5 6-2h8l8 2v-22z" fill="#1D415A"/>
<path transform="translate(239,575)" d="m0 0h8v63l-4 4-6 2h-10l-8-3-8-7-4-8-1-11 4-10 4-5 5-3 4-1h9l6 1z" fill="#1D415A"/>
<path transform="translate(1119,594)" d="m0 0 9 1 10 6 5 8 1 3v15l-5 10-7 6-6 2h-9l-9-4-7-8-3-10v-9l3-8 6-7h2v-2z" fill="#1D415A"/>
<path transform="translate(1263,1408)" d="m0 0h8v63l-4 4-3 1h-16l-8-4-7-8-3-10v-7l4-9 5-6 6-3h11l7 1z" fill="#1D415A"/>
<path transform="translate(1627,200)" d="m0 0h13l6 3 5 5 4 7 1 5v10l-4 9-4 5-7 4-4 1h-8l-9-4-6-7-4-11v-7l4-10 8-8z" fill="#1D415A"/>
<path transform="translate(603,200)" d="m0 0h13l8 4 6 8 2 8v10l-4 9-4 5-7 4-4 1h-8l-9-4-6-7-4-11v-7l4-10 8-8z" fill="#1D415A"/>
<path transform="translate(1118,1428)" d="m0 0 11 1 6 3 6 7 3 10v10l-5 10-7 6-4 2h-13l-8-5-6-7-3-9v-8l4-9 6-7 6-3z" fill="#1D415A"/>
<path transform="translate(91,596)" d="m0 0h13l8 4 6 8 2 8v10l-4 9-7 7-9 3-9-1-8-4-6-8-3-9v-8l5-10 5-5 4-3z" fill="#1D415A"/>
<path transform="translate(826,805)" d="m0 0h246l124 1 7 2v3l-371-1-9-1v-3z" fill="#08213C"/>
<path transform="translate(1664,1019)" d="m0 0 7 1 3 3 9 26 2 1 3-11 6-17 2-2h6l3 3 6 14 4 10v3h2l2-9 8-20 1-1h9l-1 7-9 26-5 12-3 3-6-2-6-9-8-19-9 26-3 4-6-2-6-7-8-19-6-17v-3z" fill="#1D415A"/>
<path transform="translate(608,958)" d="m0 0h71l10 5 6 7 4 10v9l-2 7 1 8 5 8 2 6 8 3-1 5-7 21-2 8-5 10-2 2-7-1-2-2-21 2h-45l-17 1-7-2-5-4-5-10-1-4v-10l4-10 6-5 7-4h3v-40l1-19zm1 1-1 1v103l1 1h56l13-1 11-3 6-4 5-6 4-11v-16l-4-13-5-7-2-2 4-11v-9l-3-10-6-7-10-4z" fill="#1D415A"/>
<path transform="translate(478,998)" d="m0 0h8l2 2v11h2l1-2-1 5-10 26-6 17-3 6h29l1-2v3l-37 3-7-3-7-6-4-9-1-7 2-11 6-8 10-5h14v-19z" fill="#1D415A"/>
<path transform="translate(1661,201)" d="m0 0h10l6 12 6 17v3h2l4-16 6-15 1-1h6l5 8 8 20 1 3 3-9 8-21 1-1h9l-2 9-9 26-6 12h-4l-6-5-8-18-3-8-9 26-4 6-6-3-4-5-6-12-7-20-2-4z" fill="#1D415A"/>
<path transform="translate(637,201)" d="m0 0h10l6 12 6 17v3h2l4-16 6-15 1-1h6l5 8 8 20 1 3 3-9 8-21 1-1h9l-2 9-9 26-6 12-2 1-6-4-5-8-8-20-9 26-3 5-6-1-5-6-5-10-8-22-2-4z" fill="#1D415A"/>
<path transform="translate(125,597)" d="m0 0h10l6 12 6 17v3h2l4-16 6-15 1-1h6l5 8 8 20 1 3 3-9 8-21 1-1h9l-2 9-9 26-6 12-2 1-6-4-6-10-7-18-9 26-3 5-5-1-5-5-5-9-9-24-2-5z" fill="#1D415A"/>
<path transform="translate(1149,1430)" d="m0 0h11l7 17 5 14 3-9 6-16 3-6h7l7 14 6 17 3-9 8-21 1-1h9l-3 12-9 25-5 10-5-1-6-7-8-18-1-6h-2l-4 16-5 13-2 3-5-1-7-8-6-14-8-21z" fill="#1D415A"/>
<path transform="translate(996,597)" d="m0 0 3 4 1 15v22l-4 4-5 2h-15l-8-3-5-5-5-10-2-9v-5h-7v-1l24-1 9-2 10-5z" fill="#1C4059"/>
<path transform="translate(646,879)" d="m0 0 3 2 12 1 316 1h118l298-1-2 2-4 1h-735l-6-4z" fill="#1D415A"/>
<path transform="translate(511,958)" d="m0 0h26l3 1 8 19 15 40 1 2 13-2 6 1v6l-2 2-13 2 4 13 8 20-1 3-12 1h-11l-10-2-7 3h-17l-9-3-10-5-2 2 1-5 5-11 5-1h27l4 2 7 15 3 1h19l5 1-6-16-10-28-5-12-14-37-3-10-30 1v-2z" fill="#1C4059"/>
<path transform="translate(735,958)" d="m0 0h59l16 4 10 6 7 8 5 12 2 11v24l-3 14-5 10-7 8-10 6-14 4-24 1h-37l-8-4-4-5-4-9v-14l3-6 5-6 6-2 1-2v-58zm1 2-1 3v99l3 2h16l36-1 12-2 11-4 8-6 6-8 3-7 2-11v-27l-4-16-6-9-8-7-10-4-10-2z" fill="#1D415A"/>
<path transform="translate(361,1020)" d="m0 0h13l6 2 2 3 1 5v32l-3 3-13 2-11-1-6-3-4-5v-10l4-5 10-4 9-3h4l-1-8h-21l-1-4 2-3z" fill="#1D415A"/>
<path transform="translate(884,596)" d="m0 0 4 1 6 5 2 16v20l-1 3-6 2-15 1-10-2-5-5-2-3v-8l6-7 7-6 4-1-5-1v-1h14l2 1-2-9v-5z" fill="#1D415A"/>
<path transform="translate(870,1430)" d="m0 0h18l6 5 1 4v33l-6 3-9 1h-9l-8-3-5-6v-9l4-5 9-4 14-4v-9l-12 1h-10v-6z" fill="#1D415A"/>
<path transform="translate(1376,202)" d="m0 0h26l4 5 1 3v34l-9 3h-18l-8-5-2-4v-8l4-6 10-4 11-3h3l-1-8-22-1v-5z" fill="#1D415A"/>
<path transform="translate(1888,598)" d="m0 0h26l4 5 1 3v34l-5 2-6 1h-15l-7-4-4-5v-8l4-6 10-4 11-3h3l-1-8-22-1v-5z" fill="#1D415A"/>
<path transform="translate(352,202)" d="m0 0h25l5 5 1 3v34l-9 3h-18l-8-5-2-4v-8l6-7 19-6h3l-1-8-22-1v-5z" fill="#1D415A"/>
<path transform="translate(1151,821)" d="m0 0 4 2 4-1 3 1 3-1 5-1 1 3 4-3h2l1 2 7 1v2l-2 1h-241l-24-1 4-2h19l5-1h12l5-1h155l3 1 4-1 3 1 5-1 5 1 7-1h5z" fill="#08203B"/>
<path transform="translate(1094,878)" d="m0 0h286l3 1v2l-10 1h-279l-1-2z" fill="#09203B"/>
<path transform="translate(864,958)" d="m0 0h28l2 2 1 62 3 9 7 4h20l5-4 1-5 1-65 3-3h28l2 2v63l-3 14-6 12-7 8-12 6-11 3h-25l-11-3-10-5-4-3v-2l-3-1-6-9-4-12-1-9v-62zm2 1-2 1v64l3 14 5 10 8 8 12 6 9 2h25l14-4 9-6 8-9 4-10 2-12v-63h-28l-1 63-3 10-4 4-5 2h-16l-8-4-3-4-2-7-1-64z" fill="#1D415A"/>
<path transform="translate(1544,183)" d="m0 0h13l11 4v5l-4 1-5-1h-9l-10 5-5 8-1 3v15l4 8 6 5 7 3h10l8-2 1 4-8 6-4 1h-12l-9-4-8-6-5-8-3-10v-10l4-11 7-9 9-6z" fill="#1D415A"/>
<path transform="translate(520,183)" d="m0 0h13l11 4v5l-4 1-5-1h-9l-10 5-5 8-1 3v15l4 8 6 5 7 3h10l8-2 1 4-8 6-4 1h-12l-9-4-8-6-5-8-3-10v-10l4-11 7-9 9-6z" fill="#1D415A"/>
<path transform="translate(1033,1411)" d="m0 0h8l10 2 5 3v5h-20l-7 4-5 6-2 5v16l4 8 9 6 5 2 11-1 7-1-1 5-6 4-3 1h-16l-10-5-7-7-5-11-1-4v-11l4-10 6-8 7-6z" fill="#1D415A"/>
<path transform="translate(1090,956)" d="m0 0h13l17 3 10 4 9 7 6 8 4 10 1 11-1 1h-29l-2-1-3-11-11-3h-13l-9 4-4 6-2 16v12l5 8v2l5 2 18 1 7-1 4-3 1-7 3-2h29l2 5-2 11-4 10-4 5-9 6-13 5-20 2-15-1-13-4-8-4-10-9-7-14-3-14v-19l3-15 6-12 11-11 12-5zm-8 3-14 4-10 7-7 8-5 12-2 12v19l3 14 4 9 6 8 8 6 10 4 10 2h27l15-4 10-6 6-7 4-10 1-11-1-1h-27l-4 9-7 4-3 1h-17l-8-4-5-5-3-11v-15l3-10 4-6 7-4 4-1h12l8 2 5 3 5 10h26l1-1-1-9-4-10-6-8-11-7-14-4z" fill="#1D415A"/>
<path transform="translate(1318,386)" d="m0 0 4 4 1 11 1 9v204l-1 56-1 2-1 35h-1l-1-312z" fill="#08203B"/>
<path transform="translate(414,1019)" d="m0 0h10l8 4 3 5 1 8 1 29-2 2-9-1-1-24-1-13h-17l-1 37-1 1-8-1-1-27 1-16 3-2z" fill="#1D415A"/>
<path transform="translate(1553,1010)" d="m0 0 6 1 1 2v45l-3 1-9-2-10-7-4-6v-17l2-6 4-6 7-4z" fill="#062944"/>
<path transform="translate(803,819)" d="m0 0h154l238 1v2l-1 1 2 2-6 4-7-1 2-4h-7l-1-3-4 3h-2l-2-2-8 2-4-1-3 1-3-2-4 1h-7l-3 1-4-1-6 1-4-1-3 1-7-1h-205l-4 1v-2l-9 2-14-1-4 1v-2l-7 1h-10l-2-1-36-1-19-1z" fill="#1C4059"/>
<path transform="translate(923,1429)" d="m0 0h12l7 3 4 4 1 3 1 18v18l-1 1h-8l-1-1-1-35-1-2h-14l-3 1-1 36-1 1-8-1v-42l6-3z" fill="#1D415A"/>
<path transform="translate(1430,201)" d="m0 0h20l6 4 2 2 1 4 1 17v19h-10l-1-38h-12l-6 1-1 37h-8l-1-1v-42z" fill="#1D415A"/>
<path transform="translate(406,201)" d="m0 0h19l6 3 3 4 1 3 1 17v19h-10l-1-38h-12l-6 1-1 37h-8l-1-1v-42z" fill="#1D415A"/>
<path transform="translate(1941,597)" d="m0 0h21l5 3 3 4 1 3 1 20v15l-1 1h-8l-1-1-1-35-1-2h-13l-4 1-1 37h-8l-1-1v-42z" fill="#1D415A"/>
<path transform="translate(917,812)" d="m0 0 136 1 1 2-10 2h-156l-45 1h-42l4-4 4-1z" fill="#ACE6FE"/>
<path transform="translate(1024,579)" d="m0 0h1v22l-2 1v16l4 8 5 5 4 2 10 1h11l1 4-5 5-7 1h-10l-10-3-8-6-6-9-3-11v-8l2-9 5-9 5-6h3z" fill="#1D415A"/>
<path transform="translate(935,571)" d="m0 0h38l3 6v9l-3 5-1 1h-37l-1-9v-11z" fill="#072A45"/>
<path transform="translate(943,777)" d="m0 0 5 2 5-1 6 1v-1h5 2l2-1 4 1 12-1 5 1 5-1h53l9 1 2-1 7 1 3 2 1-2h4l1 1 2-1h6l1 1h14l3 1v-2l10 1 17 1h30l17 1v1h-296v-1l17-1 32-1 2-1v2l6-2 2 1 5 1z" fill="#08203B"/>
<path transform="translate(1222,598)" d="m0 0 2 3-1 6-7 21-7 16h-6l-5-4-9-21v-7l12-2 13-5z" fill="#1C4059"/>
<path transform="translate(608,958)" d="m0 0h71l10 5 6 7 4 10v9l-2 7 1 8 5 8 2 6 8 3-1 5-7 21-2 8-5 10-2 2-7-1-2-2-21 2h-30l-15-1 1-2h43l13-1 11-3 6-4 4-5 4-11v-16l-4-13-4-6-3-3 4-11v-9l-3-10-5-6-10-4-69-1v56h-2l-1-6v-32l1-19z" fill="#1D415A"/>
<path transform="translate(903,878)" d="m0 0h55v3l-7 1h-249l-36-1-10-1v-1z" fill="#08203B"/>
<path transform="translate(1151,601)" d="m0 0 9 6 13 4 13 2-5 21-4 8-2 2-6-1-6-7-5-12-4-10-2-10z" fill="#1C4059"/>
<path transform="translate(855,915)" d="m0 0h361l8 1v1h-115l-53 1-54-1h-156v-1z" fill="#08203B"/>
<path transform="translate(1592,983)" d="m0 0 26 1 3 3 1 3v9l-2 5-2 2-7 1h-20l-1-1v-22z" fill="#062944"/>
<path transform="translate(1349,983)" d="m0 0h9l14 2 6 3 5 6 2 6 1 17-4 13-4 5-7 3-9 1h-16l-1-1-1-22 1-32zm0 3-1 1-1 32h19v8l-10 2-4 4v3l6 1 16-2 4-4-3-4v-5l7-3 1-2v-12l-2-10-3-5-6-3-6-1z" fill="#1D415A"/>
<path transform="translate(648,1020)" d="m0 0h23l4 3v13l-2 2-7 1h-29l-1-1v-16l1-1z" fill="#1D415A"/>
<path transform="translate(721,387)" d="m0 0h1v352h-1l-1-32v-123l-1-85v-66l1-10-1-17 1-16z" fill="#09203B"/>
<path transform="translate(724,775)" d="m0 0h12l-1 4-11 13-13 12-1-4v-2l-5 4-2 3h-2l-2 4v2l5-1-2 4-7 7-5 6-1-3-9 3-4 2 1-5 9-9 7-8 15-16 7-8 7-7z" fill="#A3D3F7"/>
<path transform="translate(910,598)" d="m0 0h1l1 13h26l11 1-1 31h-9l-1-6v-24h-13l-6-1v29l-2 2h-7l-1-1v-28z" fill="#1D415A"/>
<path transform="translate(837,596)" d="m0 0h13l3 1 1 6-2 1-14 1v38l-1 1-9-1-1-5v-37l4-4z" fill="#1D415A"/>
<path transform="translate(1762,208)" d="m0 0h9l3 2 1 8v10l-1 11-5 2-7-1-6-5-2-5v-13l4-6z" fill="#062944"/>
<path transform="translate(1251,1436)" d="m0 0 9 1 2 1 1 17-1 12-2 2h-9l-6-4-3-6v-13l4-7z" fill="#062944"/>
<path transform="translate(226,604)" d="m0 0h9l3 2 1 8v10l-1 11-2 1h-9l-6-4-3-6v-13l4-7z" fill="#062944"/>
<path transform="translate(2047,583)" d="m0 0h1v55l-4-2-6-7-4-9-1-5v-9l4-11 7-9z" fill="#1D415A"/>
<path transform="translate(738,208)" d="m0 0h9l3 2v29l-2 1h-9l-5-3-3-4-1-3v-13l4-7z" fill="#062944"/>
<path transform="translate(94,604)" d="m0 0h7l5 5 2 6v12l-3 5-3 3-5 1-6-2-4-5-1-3v-12l5-8z" fill="#062944"/>
<path transform="translate(1631,208)" d="m0 0h6l6 7 1 5v10l-2 5-6 5h-6l-6-5-2-5v-11l3-6z" fill="#062843"/>
<path transform="translate(607,208)" d="m0 0h6l6 7 1 5v10l-2 5-6 5h-6l-6-5-2-5v-11l3-6z" fill="#062843"/>
<path transform="translate(1122,1436)" d="m0 0 5 2 4 6 1 5v10l-3 6-4 3h-8l-5-5-2-5v-10l4-8 4-3z" fill="#062843"/>
<path transform="translate(2e3 604)" d="m0 0h7l4 2 1 3v22l-2 4-9 1-6-4-3-5-1-11 4-8z" fill="#062944"/>
<path transform="translate(935,535)" d="m0 0h29l4 1 1 2v10l-2 3-9 1h-21l-2-1z" fill="#072A45"/>
<path transform="translate(1490,208)" d="m0 0h6l4 2 1 2v23l-2 4-2 1h-7l-6-4-3-5-1-9 2-7 4-5z" fill="#062944"/>
<path transform="translate(466,208)" d="m0 0h6l4 2 1 2v23l-2 4-9 1-6-4-3-5-1-9 2-7 4-5z" fill="#062944"/>
<path transform="translate(977,1437)" d="m0 0h8l4 4v23l-1 3-2 1h-9l-6-4-2-4-1-9 3-9z" fill="#062944"/>
<path transform="translate(1312,774)" d="m0 0h10l8 5v3l-2-1 2 6 9 10 4 3v2l4 2 13 18 4 5v2l3 1 3 4-1 3-3-3-5-3-9-9-7-8-8-8-7-8-14-15-5-6z" fill="#AAE2FC"/>
<path transform="translate(1763,1027)" d="m0 0 8 1 3 2v26l-5 3-9-2-5-6-1-3v-10l4-8z" fill="#062944"/>
<path transform="translate(997,838)" d="m0 0h30l22 1 2 1 4-1h10l3 1 4-1 5 1 2-1v2l5 1v1l-48 1h-79l2-1v-2l6-2z" fill="#08203B"/>
<path transform="translate(467,1028)" d="m0 0h8l4 10-3 14-3 7-5 1-8-6-2-3-1-10 2-8 5-4z" fill="#062944"/>
<path transform="translate(1118,605)" d="m0 0h7l5 6 2 6v7l-2 7-5 4h-7l-5-3-2-5v-12l4-8z" fill="#062944"/>
<path transform="translate(1250,605)" d="m0 0h8l3 2 1 4v18l-2 6h-9l-5-3-4-7v-10l3-6z" fill="#062944"/>
<path transform="translate(1086,1429)" d="m0 0h9v5l-6 2-10 2-1 37-1 1h-7l-1-1v-42l6-2z" fill="#1D415A"/>
<path transform="translate(1604,200)" d="m0 0 3 1v5l-9 2-7 1-1 38h-8l-1-1v-42l7-2z" fill="#1D415A"/>
<path transform="translate(580,200)" d="m0 0 3 1v5l-9 2-7 1-1 38h-8l-1-1v-42l7-2z" fill="#1D415A"/>
<path transform="translate(68,596)" d="m0 0 3 1-1 5-9 2-6 1-1 38h-8l-1-1v-42l14-3z" fill="#1D415A"/>
<path transform="translate(1078,813)" d="m0 0h123l4 3v2h-37l-4-1h-83l-3-2z" fill="#ACE6FE"/>
<path transform="translate(984,607)" d="m0 0h5v16l-1 11-1 1h-10l-5-4-2-5-1-12 4-2v-2l9-2z" fill="#062944"/>
<path transform="translate(1151,821)" d="m0 0 4 2 4-1 3 1 3-1 5-1 1 3 4-3h2l1 2 7 1v2l-2 1h-97v-2l-6-1-4 1-2-2 2-1h42l3 1 4-1 3 1 5-1 5 1 7-1h5z" fill="#062843"/>
<path transform="translate(1190,788)" d="m0 0 4 2 8 11v5h-387l-6-1 1-2 389 1-2-5-7-10z" fill="#1D415A"/>
<path transform="translate(333,1020)" d="m0 0h8l1 5-1 1-16 2v37l-1 1-7-1-1-37 2-6 2-1z" fill="#1D415A"/>
<path transform="translate(1358,201)" d="m0 0h7l1 5-1 1-16 2v37l-1 1-7-1v-42l4-2z" fill="#1D415A"/>
<path transform="translate(669,851)" d="m0 0 1 2 203-1h69l-1 2-6 1h-126l-141-1z" fill="#1D415A"/>
<path transform="translate(1812,614)" d="m0 0h9l7 3 3 6-1 8-3 3-8 2h-9l-1-2v-19z" fill="#062944"/>
<path transform="translate(1869,597)" d="m0 0h9v5l-2 1-16 1 1 38-5 1-3-2v-41l3-2z" fill="#1D415A"/>
<path transform="translate(1225,956)" d="m0 0h13l17 3 10 4 8 6 6 7 5 12-1 3-8-16-5-5-9-6-13-4h-30l-12 3-9 5-7 6-5 8-4 14-1 10v11l2 14 5 13 9 10 11 6 8 3-4 1-12-5-9-7-7-10-4-11-2-11v-16l3-14 3-9 6-9 9-8 12-5z" fill="#1D415A"/>
<path transform="translate(786,1447)" d="m0 0h13l5 3 3 6-1 8-4 3-11 2-5-1-1-1v-19z" fill="#062843"/>
<path transform="translate(639,983)" d="m0 0h13l16 1 1 7-2 5-3 1h-26l-1-1v-12z" fill="#1C4059"/>
<path transform="translate(335,201)" d="m0 0h6l1 5-1 1-17 1 1 38-5 1-3-1v-42l5-2z" fill="#1D415A"/>
<path transform="translate(273,219)" d="m0 0h16l5 5 1 8-2 5-9 3h-10l-1-2z" fill="#062944"/>
<path transform="translate(841,1430)" d="m0 0h13l-1 5-16 2v38l-2 1-6-2v-42l1-1z" fill="#1D415A"/>
<path transform="translate(273,1038)" d="m0 0h15l5 3 2 9-2 6-9 3h-10l-1-2z" fill="#062944"/>
<path transform="translate(1227,982)" d="m0 0h10l9 3 7 6 3 6 1 5v18l-3 10-6 7-7 3h-16l-9-4-5-6-3-7-1-13 2-13 6-10 8-4zm-1 2-8 4-5 5-3 9-1 14 3 10 4 6 4 3 6 1h19l6-5 4-9v-19l-4-11-5-5-9-3z" fill="#1D415A"/>
<path transform="translate(1298,219)" d="m0 0h15l4 3 1 3v10l-3 3-10 2-8-1v-19z" fill="#062944"/>
<path transform="translate(1077,610)" d="m0 0 3 1-1 1v30l-2 2-9-1-1-29 1-1-42-1v-1z" fill="#1D415A"/>
<path transform="translate(932,760)" d="m0 0h148v1l-9 1-3 2-1-3h-3v2l-5 1-2-2-3 2h-12l-2-2-1 2h-58l-2-2-2 2h-12l-1-2-32-1z" fill="#08203B"/>
<path transform="translate(511,958)" d="m0 0h26l3 1 8 19 15 40 1 2 13-2 6 1v6l-2 2-13 2 4 13 6 15-1 3-5-10-11-31-5-12-14-37-3-10-30 1v-2z" fill="#1D415A"/>
<path transform="translate(1810,586)" d="m0 0h14l5 3v12l-4 4-3 1h-12l-1-1v-18z" fill="#062843"/>
<path transform="translate(274,190)" d="m0 0h14l4 2 1 2v11l-4 4-2 1h-13l-1-1v-18z" fill="#062944"/>
<path transform="translate(274,1009)" d="m0 0h13l5 2 1 2v10l-2 4-5 2h-12l-1-1v-18z" fill="#062843"/>
<path transform="translate(1298,190)" d="m0 0h13l5 2 1 2v10l-2 4-5 2h-12l-1-1v-18z" fill="#062944"/>
<path transform="translate(1403,865)" d="m0 0h2l-1 5-5 2-2 1 2 1-4 3h-6l-1 1h-293v-1l287-1 9-3z" fill="#1D415A"/>
<path transform="translate(786,1419)" d="m0 0h15l4 3v11l-5 5-10 1-5-1v-18z" fill="#062944"/>
<path transform="translate(766,983)" d="m0 0h11l14 2 7 4 4 5 2 8v18l-3 10-5 5-7 3-9 1h-16l-1-15v-31l1-9zm0 3-1 3v48l24-1 6-3 3-2 3-6 1-6v-11l-1-10-5-8-5-3-11-1z" fill="#1D415A"/>
<path transform="translate(789,612)" d="m0 0h7v3l6 2 4 5-1 8-3 3-5 1h-9l-1-1-1-8 1-10h2z" fill="#062944"/>
<path transform="translate(837,546)" d="m0 0 3 3 7 20 1 5-3 1h-14l-4-1 3-10z" fill="#092B46"/>
<path transform="translate(1592,983)" d="m0 0 26 1 3 3 1 3v9l-2 5-2 2-7 1h-20l-1-1v-22zm15 2-16 1v18h9l1-4-3-1 1-3v-3h7l4 4-1 3v4h8l3-3v-11l-2-4z" fill="#1C4059"/>
<path transform="translate(706,795)" d="m0 0 1 2 3-1v2l-5 4-2 3h-2l-2 4v2l5-1-2 4-7 7-5 6-1-3-9 3-4 2 1-5 9-9 7-8 4-4h3l2-4z" fill="#AAE2FC"/>
<path transform="translate(1561,958)" d="m0 0h60l12 3 9 6 4 5 5 12 1 7v8l-3 13-4 7-1-2 4-9 1-5v-16l-3-10-5-8-9-6-8-2h-62v39h-2l-1-28 1-13z" fill="#1D415A"/>
<path transform="translate(1624,198)" d="m0 0h16l5 3-2 1-3-1h-13l-6 3-7 8-3 8v7l4 11 5 6 9 4 10 1-3 2-7 1-15-9-4-7-3-13 1-8-1-9 1-2 8-2 2-2z" fill="#08203B"/>
<path transform="translate(747,406)" d="m0 0h53l20 1-1 2-35 1h-25l-6 4-4 9h-1l-1-7z" fill="#08213C"/>
<path transform="translate(1114,1426)" d="m0 0h8l7 1 1 2h-12l-8 3-6 5-4 8-1 3v8l4 11 8 7 6 3 9 1v1l-9 1-11-6-7-7-2-6-1-4-1-23 1-2 8-2z" fill="#08203B"/>
<path transform="translate(600,198)" d="m0 0h16l5 3-2 1-3-1h-13l-6 3-7 8-3 8v7l4 11 5 6 9 4 6 1-2 1-1 2-10-4-8-6-3-3-4-16 1-8-1-9 1-2 8-2 2-2z" fill="#08213C"/>
<path transform="translate(0,626)" d="m0 0 8 6 8 3h10l7-1-1 5-8 4h-11l-13-4z" fill="#1D415A"/>
<path transform="translate(881,1453)" d="m0 0h4v14l-5 3h-9l-4-3-1-8 8-4z" fill="#062843"/>
<path transform="translate(367,225)" d="m0 0h6v14l-3 2-8 1-7-3-1-8 4-3z" fill="#062843"/>
<path transform="translate(1907,620)" d="m0 0 2 1v14l-4 2h-11l-3-2-1-8 4-3z" fill="#062944"/>
<path transform="translate(1391,225)" d="m0 0h6v14l-4 2h-11l-3-3-1-7 4-3z" fill="#062944"/>
<path transform="translate(9,579)" d="m0 0h11l10 3 3 3-1 3-10-1h-10l-12 7v-10l6-4z" fill="#1D415A"/>
<path transform="translate(1302,1040)" d="m0 0h12l1 4v11l-7 2-8-1v-15z" fill="#062944"/>
<path transform="translate(368,1044)" d="m0 0 5 1v12l-3 2h-11l-4-4 1-5 6-4z" fill="#062944"/>
<path transform="translate(1303,1012)" d="m0 0h9l2 2v12l-1 1h-12l-1-3v-9z" fill="#062944"/>
<path transform="translate(524,996)" d="m0 0 2 3 7 21-17 1 1-5 5-12z" fill="#1D415A"/>
<path transform="translate(1590,1030)" d="m0 0h15l14 26 4 6 3 1h27l-2-5h2l1 6-17 2h-9l-6-2-6-8-8-16-4-6v-2l-12 1-1 28h-1z" fill="#1D415A"/>
<path transform="translate(883,622)" d="m0 0 2 1v11l-1 1h-13l-2-3v-6l6-3z" fill="#062944"/>
<path transform="translate(91,594)" d="m0 0h5l-4 2-8 5-3 1-2 4-4 9v8l4 11 4 5 3 2-1 2-9-8-3-7-1-11 1-4-1-5v-7l14-5z" fill="#08213C"/>
<path transform="translate(517,1047)" d="m0 0 9 1 15-1 2 6-13 3-11-2-4-4v-2z" fill="#062944"/>
<path transform="translate(652,1023)" d="m0 0h15v8l-1 5-2 1h-8l-3-8z" fill="#062944"/>
<path transform="translate(748,457)" d="m0 0 2 4 1 8v31l-1 22v20l-1 9h-1z" fill="#09203B"/>
<path transform="translate(797,585)" d="m0 0h1l-1 8-6 15h-3l-2-8 1-12 9-2z" fill="#082A45"/>
<path transform="translate(760,761)" d="m0 0h77v1l-11 2v-2l-11 2h-6l-4-1-5 1h-26l-14-2z" fill="#09203B"/>
<path transform="translate(724,775)" d="m0 0h12l-1 4-6 7-3 1-1-5-5 3-2 3-5 2-2 1 2-6 9-9z" fill="#A9E0FC"/>
<path transform="translate(819,593)" d="m0 0h37v3h-31l-2 5-7 4 1-7z" fill="#0F2A44"/>
<path transform="translate(935,535)" d="m0 0h29l4 1 1 2v10l-1 2h-3l-3-7v-3l-10-2v-2h-17z" fill="#0F2A44"/>
<path transform="translate(995,573)" d="m0 0h2l1 2v20l-6 9-5 1 2-5 6-12-2-12z" fill="#AAE3FC"/>
<path transform="translate(730,379)" d="m0 0h15l-4 3-9 3-4 6-1 8v14l-2 3v-34z" fill="#ABE5FD"/>
<path transform="translate(1592,983)" d="m0 0 26 1 3 3 1 3v9l-2 2-1-11-1-4h-27v18h-1v-20z" fill="#1D415A"/>
<path transform="translate(1207,608)" d="m0 0h5l-3 4-4 15h-2l-5-14v-2z" fill="#072944"/>
<path transform="translate(1049,579)" d="m0 0 6 2 1 1v9h16v1l-11 1h-12l-1-2z" fill="#1D415A"/>
<path transform="translate(1177,820)" d="m0 0h18v2l-1 1 2 2-6 4-7-1 2-4h-7z" fill="#183B55"/>
<path transform="translate(1209,518)" d="m0 0h20v5l-6-1-4-2h-2v2l-3 1-3 6-1 9h-1z" fill="#ACE6FE"/>
<path transform="translate(643,863)" d="m0 0h1v5h2l3 7 8 3-1 3-7 1-5-4-3-9 1-4z" fill="#0D2842"/>
<path transform="translate(605,1029)" d="m0 0h1v26h-2l-2-3-1-10 1-9z" fill="#062944"/>
<path transform="translate(1810,586)" d="m0 0h14l4 4v2h-2v2l-8-1-8-2z" fill="#08213C"/>
<path transform="translate(1103,599)" d="m0 0h2l-1 4-4 7-2 5h-2l-3-4-5-1 1-3 9-4z" fill="#0A2540"/>
<path transform="translate(274,190)" d="m0 0h14l4 2v3l-4 2-14-2z" fill="#08223D"/>
<path transform="translate(786,1419)" d="m0 0h15l3 5-4 2-5-1-9-1z" fill="#08203B"/>
<path transform="translate(1166,611)" d="m0 0h7l3 3-2 11-2 3-4-9v-7z" fill="#072843"/>
<path transform="translate(1898,604)" d="m0 0h11l1 1v8h-6l-1-2-4 1v-5l1-1z" fill="#08203B"/>
<path transform="translate(909,553)" d="m0 0h1l1 45-2 4-1-4v-40z" fill="#08203B"/>
<path transform="translate(1733,213)" d="m0 0 4 2-6 18-2 1v2l-3 1 1-7z" fill="#08213C"/>
<path transform="translate(363,208)" d="m0 0h10l1 1v8h-6l-1-3-4 2z" fill="#08203B"/>
<path transform="translate(1221,1442)" d="m0 0 3 1v5l-4 10-3 6-3 1 2-9z" fill="#08213C"/>
<path transform="translate(875,1437)" d="m0 0h10l1 1v7l-1 1h-5v-2l-4 1-1-5 2-1z" fill="#08213C"/>
<path transform="translate(197,609)" d="m0 0 4 2-5 14-3 7-3 1 1-7z" fill="#08213C"/>
<path transform="translate(805,784)" d="m0 0 1 3-6 9-4 2v-12z" fill="#AAE3FD"/>
<path transform="translate(1309,380)" d="m0 0 4 1 4 5v15l-3-3-2-10-3-6z" fill="#AAE3FD"/>
<path transform="translate(1141,517)" d="m0 0 7 1 1 3-4 4-3 13h-1z" fill="#ACE6FE"/>
<path transform="translate(1232,531)" d="m0 0 2 1 1 5v15l-2 12h-1z" fill="#09203B"/>
<path transform="translate(1497,1029)" d="m0 0 3 4 1 3-1 1h-14l2-5h6l1-2z" fill="#062944"/>
<path transform="translate(848,517)" d="m0 0 3 1 5 13v6l-2-3-5-8-4-5 1-3z" fill="#A9E1FC"/>
<path transform="translate(1907,620)" d="m0 0 2 1v11l-2 2v-6l-6-1-2-4z" fill="#08213C"/>
<path transform="translate(1e3 574)" d="m0 0 3 3 1 16-1 2-4-1z" fill="#08203B"/>
<path transform="translate(1527,193)" d="m0 0h2l-2 5-4 8-1 4h-2l-1-2v-8l6-6z" fill="#08203B"/>
<path transform="translate(503,193)" d="m0 0h2l-2 5-4 8-1 4h-2l-1-2v-8l6-6z" fill="#08203B"/>
<path transform="translate(1014,1422)" d="m0 0h2l-1 4-4 8-2 5-2-2v-8l4-5h3z" fill="#08213C"/>
<path transform="translate(1403,865)" d="m0 0h2l-1 5-5 2-2 1 2 1-4 3h-5v-3l10-7z" fill="#1C4059"/>
<path transform="translate(1154,820)" d="m0 0h23l-4 4h-2l-2-2-8 2-4-1-3 1-1-2z" fill="#1D415A"/>
<path transform="translate(1075,537)" d="m0 0 5 1 7 6v3l-5-1-2-1v-2l-3-1v-2h-2z" fill="#0C2540"/>
<path transform="translate(1103,529)" d="m0 0 3 1 5 10v6h-2l-5-10z" fill="#A9E1FC"/>
<path transform="translate(826,785)" d="m0 0h2l-2 4-8 10h-2l-1 2-1-2 4-7z" fill="#AAE3FC"/>
<path transform="translate(1390,208)" d="m0 0h7l1 1v8h-5l-2-6z" fill="#08213C"/>
<path transform="translate(723,834)" d="m0 0 4 2 2 5-6 1-5-1 1-4z" fill="#ABE5FD"/>
<path transform="translate(720,791)" d="m0 0 2 1-9 10-3 2v-6l3-3h2l1-3z" fill="#ACE6FE"/>
<path transform="translate(759,789)" d="m0 0h2v2h-2l-2 4h-2l-1 4h-2l-2 5-3 1 1-5 7-8z" fill="#A9DFFB"/>
<path transform="translate(2047,602)" d="m0 0h1v19l-2-1-1-3v-14z" fill="#062944"/>
<path transform="translate(804,566)" d="m0 0h1l-1 8-2 5h-2v-2h-4l2-4 3-2z" fill="#0B243F"/>
<path transform="translate(1023,562)" d="m0 0h1v14h2l-2 5-3 1-1-4z" fill="#09213C"/>
<path transform="translate(367,225)" d="m0 0h5v8l-7-2-2-4z" fill="#08203B"/>
<path transform="translate(1202,1450)" d="m0 0 4 1 1 5-2 6-2-1-2-6z" fill="#08223D"/>
<path transform="translate(178,617)" d="m0 0 4 1 1 5-2 7-2-2-2-9z" fill="#08223D"/>
<path transform="translate(1149,596)" d="m0 0 4 1 2 1 2 5 7 4-4 1-6-4-4-4z" fill="#A9E1FC"/>
<path transform="translate(1049,536)" d="m0 0h21l2 2-23 1z" fill="#08203B"/>
<path transform="translate(1715,221)" d="m0 0 4 2-1 8-2 3-3-8v-4z" fill="#08223D"/>
<path transform="translate(1698,216)" d="m0 0 3 3 1 7-5 2-1-5z" fill="#08223D"/>
<path transform="translate(162,612)" d="m0 0 3 3 1 7-6 2 1-9z" fill="#08213C"/>
<path transform="translate(1186,1445)" d="m0 0h2l2 6v4l-5 1-1-5z" fill="#08223D"/>
<path transform="translate(983,522)" d="m0 0 4 1 4 6v5l-3-1-5-9z" fill="#AAE1FC"/>
<path transform="translate(878,1454)" d="m0 0h6v7l-7-2v-2l-2-1z" fill="#08203B"/>
<path transform="translate(1174,1450)" d="m0 0h1l-1 10-2 2-3-9 5-1z" fill="#08223D"/>
<path transform="translate(837,546)" d="m0 0 3 3v6l-6 1 1-6z" fill="#0D2944"/>
<path transform="translate(689,223)" d="m0 0 5 1v7l-2 3-3-8z" fill="#07233E"/>
<path transform="translate(935,536)" d="m0 0h17v1l-12 2-4 1z" fill="#09203B"/>
<path transform="translate(1682,223)" d="m0 0 4 1v7l-1 2h-2l-1-3z" fill="#08223D"/>
<path transform="translate(1337,804)" d="m0 0 3 1 7 8 4 4-1 2-13-13z" fill="#A3D2F7"/>
<path transform="translate(674,216)" d="m0 0 3 3v6h-3l-1-1z" fill="#07233E"/>
<path transform="translate(1219,821)" d="m0 0 3 1 2 7h-3v-2h-2l-1-4z" fill="#0B243E"/>
<path transform="translate(146,621)" d="m0 0h4v6l-1 2h-2z" fill="#07233E"/>
<path transform="translate(658,225)" d="m0 0 4 1-1 7h-2z" fill="#07233E"/>
<path transform="translate(1656,218)" d="m0 0 2 3 1 7-2 5h-1z" fill="#09203B"/>
</svg>
